<svg id="visual" viewBox="0 0 900 300" width="900" height="300" xmlns="http://www.w3.org/2000/svg" xmlns:xlink="http://www.w3.org/1999/xlink" version="1.1"><rect x="0" y="0" width="900" height="300" fill="#888277"></rect><path d="M0 262L6.8 259.8C13.7 257.7 27.3 253.3 41 249.7C54.7 246 68.3 243 82 242.8C95.7 242.7 109.3 245.3 123 248.8C136.7 252.3 150.3 256.7 164 254.3C177.7 252 191.3 243 204.8 238.2C218.3 233.3 231.7 232.7 245.2 234.5C258.7 236.3 272.3 240.7 286 239.5C299.7 238.3 313.3 231.7 327 226.8C340.7 222 354.3 219 368 222.7C381.7 226.3 395.3 236.7 409 237.2C422.7 237.7 436.3 228.3 450 227.8C463.7 227.3 477.3 235.7 491 240C504.7 244.3 518.3 244.7 532 243.2C545.7 241.7 559.3 238.3 573 236.5C586.7 234.7 600.3 234.3 614 239C627.7 243.7 641.3 253.3 654.8 256.3C668.3 259.3 681.7 255.7 695.2 251.8C708.7 248 722.3 244 736 241.8C749.7 239.7 763.3 239.3 777 236.5C790.7 233.7 804.3 228.3 818 228.2C831.7 228 845.3 233 859 232.8C872.7 232.7 886.3 227.3 893.2 224.7L900 222L900 301L893.2 301C886.3 301 872.7 301 859 301C845.3 301 831.7 301 818 301C804.3 301 790.7 301 777 301C763.3 301 749.7 301 736 301C722.3 301 708.7 301 695.2 301C681.7 301 668.3 301 654.8 301C641.3 301 627.7 301 614 301C600.3 301 586.7 301 573 301C559.3 301 545.7 301 532 301C518.3 301 504.7 301 491 301C477.3 301 463.7 301 450 301C436.3 301 422.7 301 409 301C395.3 301 381.7 301 368 301C354.3 301 340.7 301 327 301C313.3 301 299.7 301 286 301C272.3 301 258.7 301 245.2 301C231.7 301 218.3 301 204.8 301C191.3 301 177.7 301 164 301C150.3 301 136.7 301 123 301C109.3 301 95.7 301 82 301C68.3 301 54.7 301 41 301C27.3 301 13.7 301 6.8 301L0 301Z" fill="#f9f9f9" stroke-linecap="round" stroke-linejoin="miter"></path></svg>