<svg id="visual" viewBox="0 0 900 450" width="900" height="450" xmlns="http://www.w3.org/2000/svg" xmlns:xlink="http://www.w3.org/1999/xlink" version="1.1"><path d="M0 260L16.7 256.5C33.3 253 66.7 246 100 252.2C133.3 258.3 166.7 277.7 200 286.8C233.3 296 266.7 295 300 288.2C333.3 281.3 366.7 268.7 400 270.2C433.3 271.7 466.7 287.3 500 283.8C533.3 280.3 566.7 257.7 600 259.2C633.3 260.7 666.7 286.3 700 296.3C733.3 306.3 766.7 300.7 800 298.8C833.3 297 866.7 299 883.3 300L900 301L900 451L883.3 451C866.7 451 833.3 451 800 451C766.7 451 733.3 451 700 451C666.7 451 633.3 451 600 451C566.7 451 533.3 451 500 451C466.7 451 433.3 451 400 451C366.7 451 333.3 451 300 451C266.7 451 233.3 451 200 451C166.7 451 133.3 451 100 451C66.7 451 33.3 451 16.7 451L0 451Z" fill="#054708"></path><path d="M0 337L16.7 336.7C33.3 336.3 66.7 335.7 100 323.8C133.3 312 166.7 289 200 277C233.3 265 266.7 264 300 273.8C333.3 283.7 366.7 304.3 400 316.7C433.3 329 466.7 333 500 330.3C533.3 327.7 566.7 318.3 600 316.7C633.3 315 666.7 321 700 318.8C733.3 316.7 766.7 306.3 800 304.5C833.3 302.7 866.7 309.3 883.3 312.7L900 316L900 451L883.3 451C866.7 451 833.3 451 800 451C766.7 451 733.3 451 700 451C666.7 451 633.3 451 600 451C566.7 451 533.3 451 500 451C466.7 451 433.3 451 400 451C366.7 451 333.3 451 300 451C266.7 451 233.3 451 200 451C166.7 451 133.3 451 100 451C66.7 451 33.3 451 16.7 451L0 451Z" fill="#36632f"></path><path d="M0 296L16.7 295.7C33.3 295.3 66.7 294.7 100 301.7C133.3 308.7 166.7 323.3 200 325.3C233.3 327.3 266.7 316.7 300 318.2C333.3 319.7 366.7 333.3 400 337.7C433.3 342 466.7 337 500 327.8C533.3 318.7 566.7 305.3 600 301.8C633.3 298.3 666.7 304.7 700 310C733.3 315.3 766.7 319.7 800 326.8C833.3 334 866.7 344 883.3 349L900 354L900 451L883.3 451C866.7 451 833.3 451 800 451C766.7 451 733.3 451 700 451C666.7 451 633.3 451 600 451C566.7 451 533.3 451 500 451C466.7 451 433.3 451 400 451C366.7 451 333.3 451 300 451C266.7 451 233.3 451 200 451C166.7 451 133.3 451 100 451C66.7 451 33.3 451 16.7 451L0 451Z" fill="#5d8155"></path><path d="M0 330L16.7 337.8C33.3 345.7 66.7 361.3 100 369.2C133.3 377 166.7 377 200 369.2C233.3 361.3 266.7 345.7 300 342.2C333.3 338.7 366.7 347.3 400 353.2C433.3 359 466.7 362 500 364.5C533.3 367 566.7 369 600 366.3C633.3 363.7 666.7 356.3 700 356.2C733.3 356 766.7 363 800 368C833.3 373 866.7 376 883.3 377.5L900 379L900 451L883.3 451C866.7 451 833.3 451 800 451C766.7 451 733.3 451 700 451C666.7 451 633.3 451 600 451C566.7 451 533.3 451 500 451C466.7 451 433.3 451 400 451C366.7 451 333.3 451 300 451C266.7 451 233.3 451 200 451C166.7 451 133.3 451 100 451C66.7 451 33.3 451 16.7 451L0 451Z" fill="#849f7d"></path><path d="M0 374L16.7 378.5C33.3 383 66.7 392 100 396C133.3 400 166.7 399 200 392.2C233.3 385.3 266.7 372.7 300 368.5C333.3 364.3 366.7 368.7 400 372.5C433.3 376.3 466.7 379.7 500 383.3C533.3 387 566.7 391 600 391.3C633.3 391.7 666.7 388.3 700 380.2C733.3 372 766.7 359 800 359.5C833.3 360 866.7 374 883.3 381L900 388L900 451L883.3 451C866.7 451 833.3 451 800 451C766.7 451 733.3 451 700 451C666.7 451 633.3 451 600 451C566.7 451 533.3 451 500 451C466.7 451 433.3 451 400 451C366.7 451 333.3 451 300 451C266.7 451 233.3 451 200 451C166.7 451 133.3 451 100 451C66.7 451 33.3 451 16.7 451L0 451Z" fill="#acbea7"></path><path d="M0 420L16.7 413.3C33.3 406.7 66.7 393.3 100 391.5C133.3 389.7 166.7 399.3 200 402.2C233.3 405 266.7 401 300 401.8C333.3 402.7 366.7 408.3 400 406C433.3 403.7 466.7 393.3 500 389.3C533.3 385.3 566.7 387.7 600 394C633.3 400.3 666.7 410.7 700 412.3C733.3 414 766.7 407 800 399.7C833.3 392.3 866.7 384.7 883.3 380.8L900 377L900 451L883.3 451C866.7 451 833.3 451 800 451C766.7 451 733.3 451 700 451C666.7 451 633.3 451 600 451C566.7 451 533.3 451 500 451C466.7 451 433.3 451 400 451C366.7 451 333.3 451 300 451C266.7 451 233.3 451 200 451C166.7 451 133.3 451 100 451C66.7 451 33.3 451 16.7 451L0 451Z" fill="#d5ded2"></path><path d="M0 421L16.7 424.5C33.3 428 66.7 435 100 434C133.3 433 166.7 424 200 417.5C233.3 411 266.7 407 300 411.2C333.3 415.3 366.7 427.7 400 431.3C433.3 435 466.7 430 500 424.7C533.3 419.3 566.7 413.7 600 410.2C633.3 406.7 666.7 405.3 700 405.2C733.3 405 766.7 406 800 412.2C833.3 418.3 866.7 429.7 883.3 435.3L900 441L900 451L883.3 451C866.7 451 833.3 451 800 451C766.7 451 733.3 451 700 451C666.7 451 633.3 451 600 451C566.7 451 533.3 451 500 451C466.7 451 433.3 451 400 451C366.7 451 333.3 451 300 451C266.7 451 233.3 451 200 451C166.7 451 133.3 451 100 451C66.7 451 33.3 451 16.7 451L0 451Z" fill="#ffffff"></path></svg>